<?xml version="1.0" encoding="UTF-8"?>
<svg id="TikTok" xmlns="http://www.w3.org/2000/svg" viewBox="0 0 100 100">
  <defs>
    <style>
      .cls-1 {
        fill: #db343b;
      }
    </style>
  </defs>
  <g>
    <path class="cls-1" d="M41.69,44.37h-7.19c.44.56.89,1.12,1.36,1.68h6.66c-.28-.56-.56-1.12-.83-1.68Z"/>
    <path class="cls-1" d="M42.84,46.65h-6.45c.49.57.99,1.12,1.51,1.68h5.84c-.3-.55-.6-1.11-.9-1.68Z"/>
    <path class="cls-1" d="M38.93,31.76c2.76-5.48,12.53-4.6,12.53-4.6-2.66-4.28-11.48-8.88-19.31-2.84-5.48,4.22-4.01,10.69.26,17.16h7.98c-1.65-3.98-2.51-7.63-1.46-9.72Z"/>
    <path class="cls-1" d="M40.65,42.08h-7.83c.38.56.79,1.12,1.21,1.68h7.37c-.26-.56-.52-1.12-.75-1.68Z"/>
    <path class="cls-1" d="M46.75,53.51h-3.56c.65.58,1.29,1.14,1.94,1.68h2.67c-.33-.52-.68-1.09-1.05-1.68Z"/>
    <path class="cls-1" d="M45.86,55.79c1.65,1.35,3.25,2.58,4.74,3.62,0,0-.99-1.41-2.41-3.62h-2.33Z"/>
    <path class="cls-1" d="M44.07,48.94h-5.61c.54.57,1.09,1.13,1.65,1.68h4.92c-.32-.55-.64-1.11-.95-1.68Z"/>
    <path class="cls-1" d="M45.38,51.22h-4.65c.59.57,1.19,1.13,1.78,1.68h3.87c-.33-.54-.66-1.1-1-1.68Z"/>
  </g>
  <g>
    <path class="cls-1" d="M56.72,55.18h2.96c.56-.53,1.14-1.1,1.71-1.68h-3.64c-.34.58-.69,1.14-1.04,1.68Z"/>
    <path class="cls-1" d="M58.11,52.9h3.88c.52-.54,1.05-1.1,1.56-1.68h-4.51c-.3.57-.62,1.13-.93,1.68Z"/>
    <path class="cls-1" d="M52.15,61.55c.12-.09,3.21-2.35,6.89-5.76h-2.71c-2.17,3.33-4.1,5.66-4.18,5.76Z"/>
    <path class="cls-1" d="M59.37,50.62h4.73c.48-.55.95-1.11,1.41-1.68h-5.32c-.26.57-.54,1.13-.82,1.68Z"/>
    <path class="cls-1" d="M60.47,48.33h5.52c.43-.55.84-1.11,1.24-1.68h-6.07c-.22.56-.45,1.12-.69,1.68Z"/>
    <path class="cls-1" d="M62.08,43.76h6.97c.31-.56.59-1.12.85-1.68h-7.48c-.08.55-.2,1.11-.34,1.68Z"/>
    <path class="cls-1" d="M70.17,31.37c-4.58-7.86-16.22-3.5-19.99.55,0,0,8.35-.19,10.96,3.33,1.28,1.72,1.63,3.89,1.36,6.23h7.67c1.48-3.5,1.8-7.01,0-10.11Z"/>
    <path class="cls-1" d="M61.39,46.05h6.26c.37-.55.73-1.11,1.06-1.68h-6.79c-.16.56-.34,1.12-.54,1.68Z"/>
  </g>
</svg>